# xmcd CD database file
#
# Track frame offsets:
#	150
#	50152
#	77057
#	107205
#	130467
#	159010
#	192077
#	222127
#	243380
#	278650
#
# Disc length: 4080 seconds
#
# Revision: 0
# Processed by: cddbd v1.5.2PL0 Copyright (c) Steve Scherf et al.
# Submitted via: CDex 1.70beta2
#
DISCID=870fee0a
DTITLE=Roller Coaster - Keep On Going
DYEAR=1995
DGENRE=Blues
TTITLE0=Come On In This House
TTITLE1=I've Got My Eyes On You
TTITLE2=Checkin' On My Baby
TTITLE3=Don't Go No Further
TTITLE4=What In The World You're Gonna Do
TTITLE5=Honest I Do
TTITLE6=When You Got A Good Friend
TTITLE7=99
TTITLE8=Slowly Goin' Crazy
TTITLE9=I May Be Wrong
EXTD=YEAR: 1995
EXTT0=
EXTT1=
EXTT2=
EXTT3=
EXTT4=
EXTT5=
EXTT6=
EXTT7=
EXTT8=
EXTT9=
PLAYORDER=
